<svg xmlns="http://www.w3.org/2000/svg" viewBox="0 0 200 200"><defs><linearGradient id="r" x1="0" x2="1"><stop stop-color="#8b0000"/><stop offset=".5" stop-color="#ff1717"/><stop offset="1" stop-color="#8b0000"/></linearGradient></defs><circle cx="100" cy="100" r="91" fill="#090909" stroke="#3a0a0a" stroke-width="5"/><path fill="url(#r)" d="M100 27 158 48v48c0 39-24 64-58 77-34-13-58-38-58-77V48z"/><path fill="#080808" d="M78 65h34c21 0 32 10 32 26 0 12-7 20-18 24l23 31h-23l-19-27H98v27H78zm20 17v20h13c8 0 13-3 13-10s-5-10-13-10z"/><path fill="#fff" d="m100 37 5 10 11 1-8 7 3 11-11-6-10 6 2-11-8-7 11-1z"/></svg>
